<?xml version="1.0" encoding="UTF-8" standalone="no"?>
<!DOCTYPE svg PUBLIC "-//W3C//DTD SVG 1.1//EN"
 "http://www.w3.org/Graphics/SVG/1.1/DTD/svg11.dtd">
<!-- Generated by graphviz version 3.0.0 (20221109.1736)
 -->
<!-- Pages: 1 -->
<svg width="1221pt" height="627pt"
 viewBox="0.00 0.00 1221.00 627.18" xmlns="http://www.w3.org/2000/svg" xmlns:xlink="http://www.w3.org/1999/xlink">
<g id="graph0" class="graph" transform="scale(1 1) rotate(0) translate(36 591.18)">
<polygon fill="white" stroke="transparent" points="-36,36 -36,-591.18 1185,-591.18 1185,36 -36,36"/>
<!-- app -->
<g id="node1" class="node">
<title>app</title>
<polygon fill="none" stroke="black" points="179,-214 45,-214 45,-210 41,-210 41,-206 45,-206 45,-184 41,-184 41,-180 45,-180 45,-176 179,-176 179,-214"/>
<polyline fill="none" stroke="black" points="45,-210 49,-210 49,-206 45,-206 "/>
<polyline fill="none" stroke="black" points="45,-184 49,-184 49,-180 45,-180 "/>
<text text-anchor="middle" x="112" y="-198.8" font-family="Times,serif" font-size="14.00">app</text>
<text text-anchor="middle" x="112" y="-183.8" font-family="Times,serif" font-size="14.00">(build from &#39;./src&#39;)</text>
</g>
<!-- static_data -->
<g id="node2" class="node">
<title>static_data</title>
<path fill="none" stroke="black" d="M330.5,-120.73C330.5,-122.53 310.55,-124 286,-124 261.45,-124 241.5,-122.53 241.5,-120.73 241.5,-120.73 241.5,-91.27 241.5,-91.27 241.5,-89.47 261.45,-88 286,-88 310.55,-88 330.5,-89.47 330.5,-91.27 330.5,-91.27 330.5,-120.73 330.5,-120.73"/>
<path fill="none" stroke="black" d="M330.5,-120.73C330.5,-118.92 310.55,-117.45 286,-117.45 261.45,-117.45 241.5,-118.92 241.5,-120.73"/>
<text text-anchor="middle" x="286" y="-102.3" font-family="Times,serif" font-size="14.00">static_data</text>
</g>
<!-- app&#45;&gt;static_data -->
<g id="edge1" class="edge">
<title>app&#45;&gt;static_data</title>
<path fill="none" stroke="black" stroke-dasharray="5,2" d="M106.3,-165.32C106.26,-157.33 107.89,-149.16 113,-143 120.66,-133.77 183.51,-122.38 231.27,-114.92"/>
<polygon fill="black" stroke="black" points="102.83,-165.86 107.15,-175.54 109.81,-165.28 102.83,-165.86"/>
<polygon fill="black" stroke="black" points="231.86,-118.37 241.21,-113.39 230.79,-111.45 231.86,-118.37"/>
<text text-anchor="middle" x="296.5" y="-146.8" font-family="Times,serif" font-size="14.00">/src/.venv/lib/python3.12/site&#45;packages/sqladmin/statics</text>
</g>
<!-- db -->
<g id="node3" class="node">
<title>db</title>
<polygon fill="none" stroke="black" points="158,-125 0,-125 0,-121 -4,-121 -4,-117 0,-117 0,-95 -4,-95 -4,-91 0,-91 0,-87 158,-87 158,-125"/>
<polyline fill="none" stroke="black" points="0,-121 4,-121 4,-117 0,-117 "/>
<polyline fill="none" stroke="black" points="0,-95 4,-95 4,-91 0,-91 "/>
<text text-anchor="middle" x="79" y="-109.8" font-family="Times,serif" font-size="14.00">db</text>
<text text-anchor="middle" x="79" y="-94.8" font-family="Times,serif" font-size="14.00">(postgres:16.3&#45;alpine)</text>
</g>
<!-- app&#45;&gt;db -->
<g id="edge2" class="edge">
<title>app&#45;&gt;db</title>
<path fill="none" stroke="black" stroke-dasharray="1,5" d="M101.35,-175.68C98.38,-170.12 95.34,-163.91 93,-158 90.12,-150.72 87.61,-142.64 85.53,-135.09"/>
<polygon fill="black" stroke="black" points="88.88,-134.05 82.99,-125.25 82.1,-135.81 88.88,-134.05"/>
</g>
<!-- pg_data -->
<g id="node4" class="node">
<title>pg_data</title>
<path fill="none" stroke="black" d="M113.5,-32.73C113.5,-34.53 98.04,-36 79,-36 59.96,-36 44.5,-34.53 44.5,-32.73 44.5,-32.73 44.5,-3.27 44.5,-3.27 44.5,-1.47 59.96,0 79,0 98.04,0 113.5,-1.47 113.5,-3.27 113.5,-3.27 113.5,-32.73 113.5,-32.73"/>
<path fill="none" stroke="black" d="M113.5,-32.73C113.5,-30.92 98.04,-29.45 79,-29.45 59.96,-29.45 44.5,-30.92 44.5,-32.73"/>
<text text-anchor="middle" x="79" y="-14.3" font-family="Times,serif" font-size="14.00">pg_data</text>
</g>
<!-- db&#45;&gt;pg_data -->
<g id="edge3" class="edge">
<title>db&#45;&gt;pg_data</title>
<path fill="none" stroke="black" stroke-dasharray="5,2" d="M79,-76.58C79,-66.83 79,-55.95 79,-46.3"/>
<polygon fill="black" stroke="black" points="75.5,-76.76 79,-86.76 82.5,-76.76 75.5,-76.76"/>
<polygon fill="black" stroke="black" points="82.5,-46.04 79,-36.04 75.5,-46.04 82.5,-46.04"/>
<text text-anchor="middle" x="156" y="-57.8" font-family="Times,serif" font-size="14.00">/var/lib/postgresql/data</text>
</g>
<!-- prometheus -->
<g id="node5" class="node">
<title>prometheus</title>
<polygon fill="none" stroke="black" points="787,-214 599,-214 599,-210 595,-210 595,-206 599,-206 599,-184 595,-184 595,-180 599,-180 599,-176 787,-176 787,-214"/>
<polyline fill="none" stroke="black" points="599,-210 603,-210 603,-206 599,-206 "/>
<polyline fill="none" stroke="black" points="599,-184 603,-184 603,-180 599,-180 "/>
<text text-anchor="middle" x="693" y="-198.8" font-family="Times,serif" font-size="14.00">prometheus</text>
<text text-anchor="middle" x="693" y="-183.8" font-family="Times,serif" font-size="14.00">(prom/prometheus:latest)</text>
</g>
<!-- ./monitoring/prometheus/prometheus.yml -->
<g id="node6" class="node">
<title>./monitoring/prometheus/prometheus.yml</title>
<path fill="none" stroke="black" d="M778,-120.73C778,-122.53 710.77,-124 628,-124 545.23,-124 478,-122.53 478,-120.73 478,-120.73 478,-91.27 478,-91.27 478,-89.47 545.23,-88 628,-88 710.77,-88 778,-89.47 778,-91.27 778,-91.27 778,-120.73 778,-120.73"/>
<path fill="none" stroke="black" d="M778,-120.73C778,-118.92 710.77,-117.45 628,-117.45 545.23,-117.45 478,-118.92 478,-120.73"/>
<text text-anchor="middle" x="628" y="-102.3" font-family="Times,serif" font-size="14.00">./monitoring/prometheus/prometheus.yml</text>
</g>
<!-- prometheus&#45;&gt;./monitoring/prometheus/prometheus.yml -->
<g id="edge4" class="edge">
<title>prometheus&#45;&gt;./monitoring/prometheus/prometheus.yml</title>
<path fill="none" stroke="black" stroke-dasharray="5,2" d="M638.56,-169.5C634.84,-166.11 631.56,-162.29 629,-158 624.83,-151.02 623.52,-142.5 623.56,-134.42"/>
<polygon fill="black" stroke="black" points="636.67,-172.47 646.71,-175.88 640.99,-166.96 636.67,-172.47"/>
<polygon fill="black" stroke="black" points="627.06,-134.46 624.25,-124.24 620.08,-133.98 627.06,-134.46"/>
<text text-anchor="middle" x="740.5" y="-146.8" font-family="Times,serif" font-size="14.00">/etc/prometheus/prometheus.yml</text>
</g>
<!-- prometheus_data -->
<g id="node7" class="node">
<title>prometheus_data</title>
<path fill="none" stroke="black" d="M941,-120.73C941,-122.53 910.97,-124 874,-124 837.03,-124 807,-122.53 807,-120.73 807,-120.73 807,-91.27 807,-91.27 807,-89.47 837.03,-88 874,-88 910.97,-88 941,-89.47 941,-91.27 941,-91.27 941,-120.73 941,-120.73"/>
<path fill="none" stroke="black" d="M941,-120.73C941,-118.92 910.97,-117.45 874,-117.45 837.03,-117.45 807,-118.92 807,-120.73"/>
<text text-anchor="middle" x="874" y="-102.3" font-family="Times,serif" font-size="14.00">prometheus_data</text>
</g>
<!-- prometheus&#45;&gt;prometheus_data -->
<g id="edge5" class="edge">
<title>prometheus&#45;&gt;prometheus_data</title>
<path fill="none" stroke="black" stroke-dasharray="5,2" d="M797.32,-174.09C824.11,-168.23 846.89,-162.25 852,-158 859.44,-151.82 864.42,-142.66 867.74,-133.8"/>
<polygon fill="black" stroke="black" points="796.33,-170.73 787.29,-176.25 797.8,-177.57 796.33,-170.73"/>
<polygon fill="black" stroke="black" points="871.13,-134.69 870.81,-124.1 864.45,-132.57 871.13,-134.69"/>
<text text-anchor="middle" x="905.5" y="-146.8" font-family="Times,serif" font-size="14.00">/prometheus</text>
</g>
<!-- 0.0.0.09090 -->
<g id="node8" class="node">
<title>0.0.0.09090</title>
<ellipse fill="none" stroke="black" cx="693" cy="-324.79" rx="59.59" ry="59.59"/>
<text text-anchor="middle" x="693" y="-321.09" font-family="Times,serif" font-size="14.00">0.0.0.0:9090</text>
</g>
<!-- 0.0.0.09090&#45;&gt;prometheus -->
<g id="edge6" class="edge">
<title>0.0.0.09090&#45;&gt;prometheus</title>
<path fill="none" stroke="black" d="M693,-264.76C693,-250.74 693,-236.41 693,-224.48"/>
<polygon fill="black" stroke="black" points="696.5,-224.28 693,-214.28 689.5,-224.28 696.5,-224.28"/>
<text text-anchor="middle" x="708.5" y="-235.8" font-family="Times,serif" font-size="14.00">9090</text>
</g>
<!-- grafana -->
<g id="node9" class="node">
<title>grafana</title>
<polygon fill="none" stroke="black" points="925,-343.79 791,-343.79 791,-339.79 787,-339.79 787,-335.79 791,-335.79 791,-313.79 787,-313.79 787,-309.79 791,-309.79 791,-305.79 925,-305.79 925,-343.79"/>
<polyline fill="none" stroke="black" points="791,-339.79 795,-339.79 795,-335.79 791,-335.79 "/>
<polyline fill="none" stroke="black" points="791,-313.79 795,-313.79 795,-309.79 791,-309.79 "/>
<text text-anchor="middle" x="858" y="-328.59" font-family="Times,serif" font-size="14.00">grafana</text>
<text text-anchor="middle" x="858" y="-313.59" font-family="Times,serif" font-size="14.00">(grafana/grafana)</text>
</g>
<!-- grafana&#45;&gt;prometheus -->
<g id="edge10" class="edge">
<title>grafana&#45;&gt;prometheus</title>
<path fill="none" stroke="black" stroke-dasharray="1,5" d="M834.71,-305.76C805.92,-283.46 756.81,-245.42 724.63,-220.5"/>
<polygon fill="black" stroke="black" points="726.49,-217.51 716.44,-214.15 722.2,-223.04 726.49,-217.51"/>
</g>
<!-- grafana_data -->
<g id="node10" class="node">
<title>grafana_data</title>
<path fill="none" stroke="black" d="M911,-209.73C911,-211.53 887.24,-213 858,-213 828.76,-213 805,-211.53 805,-209.73 805,-209.73 805,-180.27 805,-180.27 805,-178.47 828.76,-177 858,-177 887.24,-177 911,-178.47 911,-180.27 911,-180.27 911,-209.73 911,-209.73"/>
<path fill="none" stroke="black" d="M911,-209.73C911,-207.92 887.24,-206.45 858,-206.45 828.76,-206.45 805,-207.92 805,-209.73"/>
<text text-anchor="middle" x="858" y="-191.3" font-family="Times,serif" font-size="14.00">grafana_data</text>
</g>
<!-- grafana&#45;&gt;grafana_data -->
<g id="edge7" class="edge">
<title>grafana&#45;&gt;grafana_data</title>
<path fill="none" stroke="black" stroke-dasharray="5,2" d="M858,-295.69C858,-274.12 858,-244.5 858,-223.16"/>
<polygon fill="black" stroke="black" points="854.5,-295.76 858,-305.76 861.5,-295.76 854.5,-295.76"/>
<polygon fill="black" stroke="black" points="861.5,-223.13 858,-213.13 854.5,-223.13 861.5,-223.13"/>
<text text-anchor="middle" x="910.5" y="-235.8" font-family="Times,serif" font-size="14.00">/var/lib/grafana</text>
</g>
<!-- ./monitoring/grafana -->
<g id="node11" class="node">
<title>./monitoring/grafana</title>
<path fill="none" stroke="black" d="M1086.5,-209.73C1086.5,-211.53 1051.32,-213 1008,-213 964.68,-213 929.5,-211.53 929.5,-209.73 929.5,-209.73 929.5,-180.27 929.5,-180.27 929.5,-178.47 964.68,-177 1008,-177 1051.32,-177 1086.5,-178.47 1086.5,-180.27 1086.5,-180.27 1086.5,-209.73 1086.5,-209.73"/>
<path fill="none" stroke="black" d="M1086.5,-209.73C1086.5,-207.92 1051.32,-206.45 1008,-206.45 964.68,-206.45 929.5,-207.92 929.5,-209.73"/>
<text text-anchor="middle" x="1008" y="-191.3" font-family="Times,serif" font-size="14.00">./monitoring/grafana</text>
</g>
<!-- grafana&#45;&gt;./monitoring/grafana -->
<g id="edge8" class="edge">
<title>grafana&#45;&gt;./monitoring/grafana</title>
<path fill="none" stroke="black" stroke-dasharray="5,2" d="M897.03,-300.13C918.76,-286.04 945.64,-267.05 967,-247 975.29,-239.22 983.36,-229.74 990.12,-221.06"/>
<polygon fill="black" stroke="black" points="894.92,-297.32 888.38,-305.66 898.69,-303.22 894.92,-297.32"/>
<polygon fill="black" stroke="black" points="992.91,-223.17 996.16,-213.08 987.33,-218.94 992.91,-223.17"/>
<text text-anchor="middle" x="1064.5" y="-235.8" font-family="Times,serif" font-size="14.00">/etc/grafana/provisioning</text>
</g>
<!-- 0.0.0.03000 -->
<g id="node12" class="node">
<title>0.0.0.03000</title>
<ellipse fill="none" stroke="black" cx="858" cy="-495.38" rx="59.59" ry="59.59"/>
<text text-anchor="middle" x="858" y="-491.68" font-family="Times,serif" font-size="14.00">0.0.0.0:3000</text>
</g>
<!-- 0.0.0.03000&#45;&gt;grafana -->
<g id="edge9" class="edge">
<title>0.0.0.03000&#45;&gt;grafana</title>
<path fill="none" stroke="black" d="M858,-435.42C858,-407.84 858,-376.27 858,-354.11"/>
<polygon fill="black" stroke="black" points="861.5,-354.05 858,-344.05 854.5,-354.05 861.5,-354.05"/>
<text text-anchor="middle" x="873.5" y="-406.39" font-family="Times,serif" font-size="14.00">3000</text>
</g>
<!-- nginx -->
<g id="node13" class="node">
<title>nginx</title>
<polygon fill="none" stroke="black" points="470.5,-343.79 315.5,-343.79 315.5,-339.79 311.5,-339.79 311.5,-335.79 315.5,-335.79 315.5,-313.79 311.5,-313.79 311.5,-309.79 315.5,-309.79 315.5,-305.79 470.5,-305.79 470.5,-343.79"/>
<polyline fill="none" stroke="black" points="315.5,-339.79 319.5,-339.79 319.5,-335.79 315.5,-335.79 "/>
<polyline fill="none" stroke="black" points="315.5,-313.79 319.5,-313.79 319.5,-309.79 315.5,-309.79 "/>
<text text-anchor="middle" x="393" y="-328.59" font-family="Times,serif" font-size="14.00">nginx</text>
<text text-anchor="middle" x="393" y="-313.59" font-family="Times,serif" font-size="14.00">(build from &#39;./proxy&#39;)</text>
</g>
<!-- nginx&#45;&gt;app -->
<g id="edge13" class="edge">
<title>nginx&#45;&gt;app</title>
<path fill="none" stroke="black" stroke-dasharray="1,5" d="M353.34,-305.76C302.85,-282.8 215.66,-243.14 161.05,-218.31"/>
<polygon fill="black" stroke="black" points="162.47,-215.11 151.92,-214.15 159.57,-221.48 162.47,-215.11"/>
</g>
<!-- nginx&#45;&gt;static_data -->
<g id="edge11" class="edge">
<title>nginx&#45;&gt;static_data</title>
<path fill="none" stroke="black" stroke-dasharray="5,2" d="M421.45,-298.78C460.17,-261.73 520.3,-191.46 480,-143 462.58,-122.05 391.93,-113.24 340.91,-109.57"/>
<polygon fill="black" stroke="black" points="418.93,-296.34 414.02,-305.73 423.72,-301.45 418.93,-296.34"/>
<polygon fill="black" stroke="black" points="340.88,-106.06 330.67,-108.88 340.41,-113.04 340.88,-106.06"/>
<text text-anchor="middle" x="531.5" y="-191.3" font-family="Times,serif" font-size="14.00">/app/statics</text>
</g>
<!-- 0.0.0.080 -->
<g id="node14" class="node">
<title>0.0.0.080</title>
<ellipse fill="none" stroke="black" cx="393" cy="-495.38" rx="50.09" ry="50.09"/>
<text text-anchor="middle" x="393" y="-491.68" font-family="Times,serif" font-size="14.00">0.0.0.0:80</text>
</g>
<!-- 0.0.0.080&#45;&gt;nginx -->
<g id="edge12" class="edge">
<title>0.0.0.080&#45;&gt;nginx</title>
<path fill="none" stroke="black" d="M393,-445.17C393,-415.54 393,-378.87 393,-354.05"/>
<polygon fill="black" stroke="black" points="396.5,-353.87 393,-343.87 389.5,-353.87 396.5,-353.87"/>
<text text-anchor="middle" x="401" y="-406.39" font-family="Times,serif" font-size="14.00">80</text>
</g>
</g>
</svg>
